<mxfile host="app.diagrams.net" modified="2024-06-19T08:58:47.766Z" agent="Mozilla/5.0 (Windows NT 10.0; Win64; x64) AppleWebKit/537.36 (KHTML, like Gecko) Chrome/126.0.0.0 Safari/537.36" etag="AJxGq8Uitgwzh1jAoTxO" version="24.5.5" type="github">
  <diagram name="Page-1" id="gG5q-uYzCrqr-RHJwgtM">
    <mxGraphModel dx="882" dy="1673" grid="1" gridSize="10" guides="1" tooltips="1" connect="1" arrows="1" fold="1" page="1" pageScale="1" pageWidth="827" pageHeight="1169" math="0" shadow="0">
      <root>
        <mxCell id="0" />
        <mxCell id="1" parent="0" />
        <mxCell id="gmaxf5FBRkxqgxsaNnY5-1" value="" style="whiteSpace=wrap;html=1;aspect=fixed;" vertex="1" parent="1">
          <mxGeometry x="159" y="-870" width="510" height="510" as="geometry" />
        </mxCell>
        <mxCell id="gmaxf5FBRkxqgxsaNnY5-3" value="consultant technique" style="shape=umlActor;verticalLabelPosition=bottom;verticalAlign=top;html=1;outlineConnect=0;" vertex="1" parent="1">
          <mxGeometry x="60" y="-820" width="30" height="60" as="geometry" />
        </mxCell>
        <mxCell id="gmaxf5FBRkxqgxsaNnY5-4" value="consultant fonctionel" style="shape=umlActor;verticalLabelPosition=bottom;verticalAlign=top;html=1;outlineConnect=0;" vertex="1" parent="1">
          <mxGeometry x="60" y="-690" width="30" height="60" as="geometry" />
        </mxCell>
        <mxCell id="gmaxf5FBRkxqgxsaNnY5-5" value="Client" style="shape=umlActor;verticalLabelPosition=bottom;verticalAlign=top;html=1;outlineConnect=0;" vertex="1" parent="1">
          <mxGeometry x="60" y="-560" width="30" height="60" as="geometry" />
        </mxCell>
        <mxCell id="gmaxf5FBRkxqgxsaNnY5-6" value="&lt;font style=&quot;font-size: 9px;&quot;&gt;&lt;span style=&quot;font-family: Verdana; font-weight: bold;&quot;&gt;Configuration des&lt;/span&gt;&lt;span style=&quot;font-family: Verdana; font-weight: bold;&quot;&gt;&lt;br&gt;&lt;/span&gt;&lt;span style=&quot;font-family: Verdana; font-weight: bold;&quot;&gt;composants&lt;/span&gt;&lt;span style=&quot;font-family: Verdana; font-weight: bold;&quot;&gt;&lt;br&gt;MDA&lt;/span&gt;&lt;/font&gt;" style="ellipse;whiteSpace=wrap;html=1;" vertex="1" parent="1">
          <mxGeometry x="230" y="-830" width="120" height="80" as="geometry" />
        </mxCell>
        <mxCell id="gmaxf5FBRkxqgxsaNnY5-7" value="&lt;font size=&quot;1&quot; face=&quot;Verdana&quot;&gt;&lt;b&gt;PCF&lt;/b&gt;&lt;/font&gt;&lt;div&gt;&lt;font size=&quot;1&quot; face=&quot;Verdana&quot;&gt;&lt;b&gt;Angular App&lt;/b&gt;&lt;/font&gt;&lt;/div&gt;" style="ellipse;whiteSpace=wrap;html=1;" vertex="1" parent="1">
          <mxGeometry x="240" y="-700" width="120" height="80" as="geometry" />
        </mxCell>
        <mxCell id="gmaxf5FBRkxqgxsaNnY5-8" value="&lt;font size=&quot;1&quot; face=&quot;Verdana&quot;&gt;&lt;b&gt;D365:Power App&lt;/b&gt;&lt;/font&gt;" style="ellipse;whiteSpace=wrap;html=1;" vertex="1" parent="1">
          <mxGeometry x="240" y="-570" width="120" height="80" as="geometry" />
        </mxCell>
        <mxCell id="gmaxf5FBRkxqgxsaNnY5-9" style="edgeStyle=orthogonalEdgeStyle;rounded=0;orthogonalLoop=1;jettySize=auto;html=1;exitX=0.5;exitY=1;exitDx=0;exitDy=0;" edge="1" parent="1" source="gmaxf5FBRkxqgxsaNnY5-8" target="gmaxf5FBRkxqgxsaNnY5-8">
          <mxGeometry relative="1" as="geometry" />
        </mxCell>
      </root>
    </mxGraphModel>
  </diagram>
</mxfile>
